<svg xmlns="http://www.w3.org/2000/svg" width="256" height="256" viewBox="0 0 256 256">
  <defs>
    <linearGradient id="g" x1="0" x2="1" y1="0" y2="1">
      <stop offset="0%" stop-color="#8ec5ff"/>
      <stop offset="60%" stop-color="#15c39a"/>
      <stop offset="100%" stop-color="#8ec5ff"/>
    </linearGradient>
    <filter id="s" x="-20%" y="-20%" width="140%" height="140%">
      <feDropShadow dx="0" dy="6" stdDeviation="10" flood-opacity="0.35"/>
    </filter>
  </defs>
  <rect x="24" y="24" width="208" height="208" rx="52" fill="#0f141b"/>
  <circle cx="128" cy="128" r="78" fill="url(#g)" filter="url(#s)"/>
  <path d="M160 96c0 26.51-21.49 48-48 48-8.84 0-16 7.16-16 16v16c0 4.42-3.58 8-8 8s-8-3.58-8-8v-32c0-17.67 14.33-32 32-32 17.67 0 32-14.33 32-32 0-4.42 3.58-8 8-8s8 3.58 8 8z" fill="#0b0d11" opacity=".9"/>
</svg>